<svg width="342" height="342" xmlns="http://www.w3.org/2000/svg" xmlns:d="http://www.mathworks.com/blockgraphics" d:options="Port:L0">
 <title>Fig file converted by fig2lat</title>
 <desc>http://dktools.sourceforge.net/fig2lat.html</desc>
 <defs>
  <style type="text/css">
   <![CDATA[
.sD {
fill: none;
stroke: #000000;
stroke-width: 0.9;
}
.sE {
fill: none;
stroke: #000000;
stroke-width: 0.9;
stroke-miterlimit: 20;
}
.sB {
fill: #000000;
fillrule: evenodd;
stroke: #000000;
stroke-width: 0.9;
stroke-miterlimit: 20;
}
.sC {
fill: none;
stroke: #000000;
stroke-width: 0.9;
}
.sA {
fill: none;
stroke: #000000;
stroke-width: 0.9;
stroke-miterlimit: 20;
}
]]>
  </style>
 </defs>
 <g>
  <title>Layer 1</title>
  <polyline points="95.4,117 111.06,127.14" class="sA" id="svg_1"/>
  <polyline points="140.88,102.54 144.18,111.54 152.7,108.18 158.4,106.8 164.1,106.32 170.22,105.84" class="sA" id="svg_2"/>
  <polyline points="110.58,126.66 114.84,120.54 120.96,114.84 125.22,111.54 131.88,119.58 122.88,126.66 117.66,131.88 113.88,138.54" class="sA" id="svg_3"/>
  <polyline points="160.32,96.36 152.22,98.22 144.66,100.62 140.88,102.54" class="sA" id="svg_4"/>
  <polyline points="160.2,79.2 160.8,97.32" class="sA" id="svg_5"/>
  <polyline points="85.98,209.28 102.54,200.82" class="sA" id="svg_6"/>
  <polyline points="96.12,162.66 105.6,164.34 106.92,155.28 108.6,149.64 111,144.42 113.64,138.96" class="sA" id="svg_7"/>
  <polyline points="101.88,201 98.7,194.22 96.84,186.12 96.12,180.78 106.44,178.98 108.06,190.32 109.92,197.46 113.82,204.06" class="sA" id="svg_8"/>
  <polyline points="100.56,142.74 98.1,150.72 96.36,158.46 96.12,162.66" class="sA" id="svg_9"/>
  <polyline points="85.62,134.28 101.58,142.86" class="sA" id="svg_10"/>
  <polyline points="161.28,264.48 162.24,245.88" class="sA" id="svg_11"/>
  <polyline points="125.94,232.38 132.18,225 124.98,219.36 120.96,215.1 117.6,210.36 114.18,205.32" class="sA" id="svg_12"/>
  <polyline points="162.06,246.54 154.56,245.88 146.64,243.48 141.66,241.44 145.26,231.6 155.88,235.86 163.02,237.84 170.7,237.78" class="sA" id="svg_13"/>
  <polyline points="110.94,218.58 116.64,224.7 122.46,230.1 125.94,232.38" class="sA" id="svg_14"/>
  <polyline points="96.12,227.28 111.54,217.74" class="sA" id="svg_15"/>
  <polyline points="245.1,226.32 229.44,216.18" class="sA" id="svg_16"/>
  <polyline points="199.68,240.84 196.38,231.96 187.86,235.26 182.16,236.46 176.34,237 170.28,237.54" class="sA" id="svg_17"/>
  <polyline points="229.92,216.66 225.54,222.96 219.48,228.54 215.34,231.84 208.62,223.8 217.44,216.66 222.9,211.44 226.74,204.84" class="sA" id="svg_18"/>
  <polyline points="180.12,246.9 188.28,245.16 195.9,242.88 199.68,240.84" class="sA" id="svg_19"/>
  <polyline points="180.3,264.12 179.7,245.94" class="sA" id="svg_20"/>
  <polyline points="245.58,117.12 229.92,127.26" class="sA" id="svg_21"/>
  <polyline points="200.1,102.66 196.8,111.66 188.28,108.3 182.58,106.92 176.88,106.44 170.76,105.96" class="sA" id="svg_22"/>
  <polyline points="230.4,126.78 226.14,120.66 220.02,114.96 215.76,111.66 209.1,119.7 218.1,126.78 223.32,132 227.1,138.66" class="sA" id="svg_23"/>
  <polyline points="180.66,96.48 188.76,98.34 196.32,100.74 200.1,102.66" class="sA" id="svg_24"/>
  <polyline points="180.78,79.32 180.18,97.44" class="sA" id="svg_25"/>
  <polyline points="255,133.8 238.32,142.32" class="sA" id="svg_26"/>
  <polyline points="244.8,180.42 235.5,178.8 234.06,187.86 232.26,193.38 229.86,198.66 227.28,204.18" class="sA" id="svg_27"/>
  <polyline points="238.98,142.14 242.34,149.1 244.14,157.14 244.86,162.36 234.54,164.16 232.74,152.94 231,145.56 227.16,138.96" class="sA" id="svg_28"/>
  <polyline points="240.36,200.4 242.88,192.42 244.74,184.68 244.8,180.42" class="sA" id="svg_29"/>
  <polyline points="255.36,208.8 239.28,200.22" class="sA" id="svg_30"/>
  <polygon points="171,126.06 176.22,126.54 181.8,127.68 187.44,129.48 192.6,131.94 197.82,135.12 200.46,137.58 202.08,139.14 209.94,131.46 206.1,128.1 200.94,124.08 195.3,120.9 187.92,117.96 181.62,116.16 174.18,115.5 171,115.5 171,125.88" class="sB" id="svg_31"/>
  <polygon points="216,171.36 215.52,176.58 214.38,182.16 212.58,187.8 210.12,192.96 206.94,198.18 204.48,200.82 202.92,202.44 210.6,210.3 213.96,206.46 217.98,201.3 221.16,195.66 224.1,188.28 225.9,181.98 226.56,174.54 226.56,171.36 216.18,171.36" class="sB" id="svg_32"/>
  <polygon points="126.66,170.52 127.14,165.3 128.28,159.72 130.08,154.08 132.54,148.92 135.72,143.7 138.18,141.06 139.74,139.44 132.06,131.58 128.7,135.42 124.68,140.58 121.5,146.22 118.56,153.6 116.76,159.9 116.1,167.34 116.1,170.52 126.48,170.52" class="sB" id="svg_33"/>
  <polygon points="171,215.94 165.78,215.46 160.2,214.32 154.56,212.52 149.4,210.06 144.18,206.88 141.54,204.42 139.92,202.86 132.06,210.54 135.9,213.9 141.06,217.92 146.7,221.1 154.08,224.04 160.38,225.84 167.82,226.5 171,226.5 171,216.12" class="sB" id="svg_34"/>
  <path d="m95.4,117c6.699,-11.288 16.165,-20.6819 27.503,-27.2957c11.33701,-6.6138 24.174,-10.229 37.297,-10.5043" class="sC" id="svg_35"/>
  <path d="m85.98,209.28c-6.4707,-11.42599 -9.9016,-24.32201 -9.9646,-37.453c-0.0631,-13.131 3.2439,-26.05899 9.6046,-37.547" class="sC" id="svg_36"/>
  <path d="m161.28,264.48001c-13.13499,-0.11401 -26.022,-3.59302 -37.429,-10.10602c-11.408,-6.51199 -20.95499,-15.84099 -27.731,-27.09399" class="sC" id="svg_37"/>
  <path d="m245.10001,226.32001c-6.67299,11.31099 -16.13301,20.72299 -27.47701,27.34c-11.34303,6.617 -24.19301,10.21799 -37.32301,10.45999" class="sC" id="svg_38"/>
  <path d="m180.78,79.32c13.123,0.2753 25.96001,3.8905 37.297,10.5043c11.338,6.6138 20.804,16.0077 27.50302,27.2957" class="sC" id="svg_39"/>
  <path d="m255,133.8c6.43301,11.439 9.84201,24.33 9.905,37.453c0.06299,13.12398 -3.22198,26.047 -9.545,37.547" class="sC" id="svg_40"/>
  <circle cx="171" cy="171" r="114.6" class="sD" id="svg_41"/>
  <circle cx="171.18" cy="171.18" r="55.56" class="sD" id="svg_42"/>
  <circle cx="171" cy="171" r="44.7" class="sD" id="svg_43"/>
  <rect x="9" y="9" width="324" height="324" class="sE" id="svg_44"/>
 </g>
</svg>