<svg width="342" height="342" xmlns="http://www.w3.org/2000/svg">
 <title>Fig file converted by fig2lat</title>
 <desc>http://dktools.sourceforge.net/fig2lat.html</desc>
 <defs>
  <style type="text/css">
   <![CDATA[
.sD {
fill: none;
stroke: #000000;
stroke-width: 0.9;
}
.sE {
fill: none;
stroke: #000000;
stroke-width: 0.9;
stroke-miterlimit: 20;
}
.sB {
fill: #000000;
fillrule: evenodd;
stroke: #000000;
stroke-width: 0.9;
stroke-miterlimit: 20;
}
.sC {
fill: none;
stroke: #000000;
stroke-width: 0.9;
}
.sA {
fill: none;
stroke: #000000;
stroke-width: 0.9;
stroke-miterlimit: 20;
}
]]>
  </style>
 </defs>
 <g>
  <title>background</title>
  <rect fill="none" id="canvas_background" height="344" width="344" y="-1" x="-1"/>
 </g>
 <g>
  <title>Layer 1</title>
  <polyline id="svg_1" class="sA" points="95.4,117 111.06,127.14"/>
  <polyline id="svg_2" class="sA" points="140.88,102.54 144.18,111.54 152.7,108.18 158.4,106.8 164.1,106.32 170.22,105.84"/>
  <polyline id="svg_3" class="sA" points="110.58,126.66 114.84,120.54 120.96,114.84 125.22,111.54 131.88,119.58 122.88,126.66 117.66,131.88 113.88,138.54"/>
  <polyline id="svg_4" class="sA" points="160.32,96.36 152.22,98.22 144.66,100.62 140.88,102.54"/>
  <polyline id="svg_5" class="sA" points="160.2,79.2 160.8,97.32"/>
  <polyline id="svg_6" class="sA" points="85.98,209.28 102.54,200.82"/>
  <polyline id="svg_7" class="sA" points="96.12,162.66 105.6,164.34 106.92,155.28 108.6,149.64 111,144.42 113.64,138.96"/>
  <polyline id="svg_8" class="sA" points="101.88,201 98.7,194.22 96.84,186.12 96.12,180.78 106.44,178.98 108.06,190.32 109.92,197.46 113.82,204.06"/>
  <polyline id="svg_9" class="sA" points="100.56,142.74 98.1,150.72 96.36,158.46 96.12,162.66"/>
  <polyline id="svg_10" class="sA" points="85.62,134.28 101.58,142.86"/>
  <polyline id="svg_11" class="sA" points="161.28,264.48 162.24,245.88"/>
  <polyline id="svg_12" class="sA" points="125.94,232.38 132.18,225 124.98,219.36 120.96,215.1 117.6,210.36 114.18,205.32"/>
  <polyline id="svg_13" class="sA" points="162.06,246.54 154.56,245.88 146.64,243.48 141.66,241.44 145.26,231.6 155.88,235.86 163.02,237.84 170.7,237.78"/>
  <polyline id="svg_14" class="sA" points="110.94,218.58 116.64,224.7 122.46,230.1 125.94,232.38"/>
  <polyline id="svg_15" class="sA" points="96.12,227.28 111.54,217.74"/>
  <polyline id="svg_16" class="sA" points="245.1,226.32 229.44,216.18"/>
  <polyline id="svg_17" class="sA" points="199.68,240.84 196.38,231.96 187.86,235.26 182.16,236.46 176.34,237 170.28,237.54"/>
  <polyline id="svg_18" class="sA" points="229.92,216.66 225.54,222.96 219.48,228.54 215.34,231.84 208.62,223.8 217.44,216.66 222.9,211.44 226.74,204.84"/>
  <polyline id="svg_19" class="sA" points="180.12,246.9 188.28,245.16 195.9,242.88 199.68,240.84"/>
  <polyline id="svg_20" class="sA" points="180.3,264.12 179.7,245.94"/>
  <polyline id="svg_21" class="sA" points="245.58,117.12 229.92,127.26"/>
  <polyline id="svg_22" class="sA" points="200.1,102.66 196.8,111.66 188.28,108.3 182.58,106.92 176.88,106.44 170.76,105.96"/>
  <polyline id="svg_23" class="sA" points="230.4,126.78 226.14,120.66 220.02,114.96 215.76,111.66 209.1,119.7 218.1,126.78 223.32,132 227.1,138.66"/>
  <polyline id="svg_24" class="sA" points="180.66,96.48 188.76,98.34 196.32,100.74 200.1,102.66"/>
  <polyline id="svg_25" class="sA" points="180.78,79.32 180.18,97.44"/>
  <polyline id="svg_26" class="sA" points="255,133.8 238.32,142.32"/>
  <polyline id="svg_27" class="sA" points="244.8,180.42 235.5,178.8 234.06,187.86 232.26,193.38 229.86,198.66 227.28,204.18"/>
  <polyline id="svg_28" class="sA" points="238.98,142.14 242.34,149.1 244.14,157.14 244.86,162.36 234.54,164.16 232.74,152.94 231,145.56 227.16,138.96"/>
  <polyline id="svg_29" class="sA" points="240.36,200.4 242.88,192.42 244.74,184.68 244.8,180.42"/>
  <polyline id="svg_30" class="sA" points="255.36,208.8 239.28,200.22"/>
  <polygon id="svg_31" class="sB" points="171,126.06 176.22,126.54 181.8,127.68 187.44,129.48 192.6,131.94 197.82,135.12 200.46,137.58 202.08,139.14 209.94,131.46 206.1,128.1 200.94,124.08 195.3,120.9 187.92,117.96 181.62,116.16 174.18,115.5 171,115.5 171,125.88"/>
  <polygon id="svg_32" class="sB" points="216,171.36 215.52,176.58 214.38,182.16 212.58,187.8 210.12,192.96 206.94,198.18 204.48,200.82 202.92,202.44 210.6,210.3 213.96,206.46 217.98,201.3 221.16,195.66 224.1,188.28 225.9,181.98 226.56,174.54 226.56,171.36 216.18,171.36"/>
  <polygon id="svg_33" class="sB" points="126.66,170.52 127.14,165.3 128.28,159.72 130.08,154.08 132.54,148.92 135.72,143.7 138.18,141.06 139.74,139.44 132.06,131.58 128.7,135.42 124.68,140.58 121.5,146.22 118.56,153.6 116.76,159.9 116.1,167.34 116.1,170.52 126.48,170.52"/>
  <polygon id="svg_34" class="sB" points="171,215.94 165.78,215.46 160.2,214.32 154.56,212.52 149.4,210.06 144.18,206.88 141.54,204.42 139.92,202.86 132.06,210.54 135.9,213.9 141.06,217.92 146.7,221.1 154.08,224.04 160.38,225.84 167.82,226.5 171,226.5 171,216.12"/>
  <path id="svg_35" class="sC" d="m95.400002,117c6.698997,-11.288002 16.165001,-20.6819 27.502998,-27.2957c11.337006,-6.6138 24.173996,-10.228996 37.296997,-10.504303"/>
  <path id="svg_36" class="sC" d="m85.980003,209.279999c-6.470703,-11.425995 -9.901604,-24.322006 -9.9646,-37.453003c-0.063103,-13.130997 3.243896,-26.05899 9.604599,-37.546997"/>
  <path id="svg_37" class="sC" d="m161.279999,264.480011c-13.134995,-0.114014 -26.022003,-3.593018 -37.429001,-10.106018c-11.407997,-6.511993 -20.954987,-15.840988 -27.730995,-27.093994"/>
  <path id="svg_38" class="sC" d="m245.100006,226.320007c-6.672989,11.310989 -16.133011,20.722992 -27.477005,27.339996c-11.343033,6.617004 -24.193008,10.217987 -37.323013,10.459991"/>
  <path id="svg_39" class="sC" d="m180.779999,79.32c13.123001,0.275299 25.960007,3.890503 37.296997,10.504303c11.337997,6.6138 20.804001,16.007698 27.503021,27.2957"/>
  <path id="svg_40" class="sC" d="m255,133.800003c6.433014,11.438995 9.84201,24.330002 9.904999,37.453003c0.062988,13.123978 -3.221985,26.046997 -9.544998,37.546997"/>
  <circle id="svg_41" class="sD" r="114.6" cy="171" cx="171"/>
  <circle id="svg_42" class="sD" r="55.56" cy="171.18" cx="171.18"/>
  <circle id="svg_43" class="sD" r="44.7" cy="171" cx="171"/>
 </g>
</svg>